P3
# CREATOR: GIMP PNM Filter Version 1.1
30 30
255
0
0
0
0
0
0
0
0
0
0
0
0
226
226
226
226
226
226
0
0
0
0
0
0
0
0
0
0
0
0
0
0
0
0
0
0
0
0
0
0
0
0
227
227
227
227
227
227
0
0
0
0
0
0
0
0
0
0
0
0
0
0
0
0
0
0
0
0
0
0
0
0
0
0
0
234
234
234
229
229
229
0
0
0
0
0
0
0
0
0
0
0
0
0
0
0
0
0
0
0
0
0
237
237
237
237
237
237
0
0
0
0
0
0
0
0
0
0
0
0
0
0
0
0
0
0
0
0
0
0
0
0
242
242
242
243
243
243
0
0
0
0
0
0
0
0
0
0
0
0
0
0
0
0
0
0
0
0
0
0
0
0
0
0
0
246
246
246
240
240
240
2
2
2
0
0
0
0
0
0
0
0
0
0
0
0
0
0
0
0
0
0
237
237
237
237
237
237
0
0
0
0
0
0
0
0
0
0
0
0
0
0
0
0
0
0
0
0
0
0
0
0
248
248
248
248
248
248
0
0
0
0
0
0
0
0
0
0
0
0
0
0
0
0
0
0
0
0
0
0
0
0
0
0
0
249
249
249
245
245
245
4
4
4
0
0
0
0
0
0
0
0
0
0
0
0
0
0
0
0
0
0
237
237
237
237
237
237
0
0
0
0
0
0
0
0
0
0
0
0
0
0
0
0
0
0
0
0
0
0
0
0
250
250
250
250
250
250
0
0
0
0
0
0
0
0
0
0
0
0
0
0
0
0
0
0
0
0
0
0
0
0
0
0
0
249
249
249
245
245
245
5
5
5
0
0
0
0
0
0
0
0
0
0
0
0
0
0
0
0
0
0
237
237
237
237
237
237
0
0
0
0
0
0
0
0
0
0
0
0
0
0
0
0
0
0
0
0
0
0
0
0
251
251
251
251
251
251
0
0
0
0
0
0
0
0
0
0
0
0
0
0
0
0
0
0
0
0
0
0
0
0
0
0
0
249
249
249
246
246
246
5
5
5
0
0
0
0
0
0
0
0
0
0
0
0
0
0
0
0
0
0
237
237
237
237
237
237
0
0
0
0
0
0
0
0
0
0
0
0
0
0
0
0
0
0
0
0
0
0
0
0
251
251
251
251
251
251
0
0
0
0
0
0
0
0
0
0
0
0
0
0
0
0
0
0
0
0
0
0
0
0
0
0
0
249
249
249
247
247
247
5
5
5
0
0
0
0
0
0
0
0
0
0
0
0
0
0
0
0
0
0
237
237
237
237
237
237
0
0
0
0
0
0
0
0
0
0
0
0
0
0
0
0
0
0
0
0
0
0
0
0
252
252
252
252
252
252
0
0
0
0
0
0
0
0
0
0
0
0
0
0
0
0
0
0
0
0
0
0
0
0
0
0
0
249
249
249
249
249
249
5
5
5
0
0
0
0
0
0
0
0
0
0
0
0
0
0
0
0
0
0
238
238
238
238
238
238
0
0
0
0
0
0
0
0
0
0
0
0
0
0
0
0
0
0
0
0
0
0
0
0
253
253
253
254
254
254
0
0
0
0
0
0
0
0
0
0
0
0
0
0
0
0
0
0
0
0
0
0
0
0
0
0
0
250
250
250
249
249
249
5
5
5
0
0
0
0
0
0
0
0
0
0
0
0
0
0
0
0
0
0
251
251
251
253
253
253
0
0
0
0
0
0
0
0
0
0
0
0
0
0
0
0
0
0
0
0
0
0
0
0
254
254
254
254
254
254
0
0
0
0
0
0
0
0
0
0
0
0
0
0
0
0
0
0
0
0
0
0
0
0
0
0
0
250
250
250
249
249
249
5
5
5
0
0
0
0
0
0
0
0
0
0
0
0
0
0
0
0
0
0
254
254
254
255
255
255
0
0
0
0
0
0
0
0
0
0
0
0
0
0
0
0
0
0
0
0
0
0
0
0
254
254
254
254
254
254
0
0
0
0
0
0
0
0
0
0
0
0
0
0
0
0
0
0
0
0
0
0
0
0
0
0
0
250
250
250
249
249
249
5
5
5
0
0
0
0
0
0
0
0
0
0
0
0
0
0
0
0
0
0
254
254
254
255
255
255
0
0
0
0
0
0
0
0
0
0
0
0
0
0
0
0
0
0
0
0
0
0
0
0
254
254
254
254
254
254
0
0
0
0
0
0
0
0
0
0
0
0
0
0
0
0
0
0
0
0
0
0
0
0
0
0
0
250
250
250
249
249
249
5
5
5
0
0
0
0
0
0
0
0
0
0
0
0
0
0
0
0
0
0
254
254
254
255
255
255
0
0
0
0
0
0
0
0
0
0
0
0
0
0
0
0
0
0
0
0
0
0
0
0
254
254
254
254
254
254
0
0
0
0
0
0
0
0
0
0
0
0
0
0
0
0
0
0
0
0
0
0
0
0
0
0
0
250
250
250
250
250
250
5
5
5
0
0
0
0
0
0
0
0
0
0
0
0
0
0
0
0
0
0
254
254
254
255
255
255
0
0
0
0
0
0
0
0
0
0
0
0
0
0
0
0
0
0
0
0
0
0
0
0
254
254
254
254
254
254
0
0
0
0
0
0
0
0
0
0
0
0
0
0
0
0
0
0
0
0
0
0
0
0
0
0
0
249
249
249
250
250
250
5
5
5
0
0
0
0
0
0
0
0
0
0
0
0
0
0
0
0
0
0
254
254
254
255
255
255
0
0
0
0
0
0
0
0
0
0
0
0
0
0
0
0
0
0
0
0
0
0
0
0
254
254
254
254
254
254
0
0
0
0
0
0
0
0
0
0
0
0
0
0
0
0
0
0
0
0
0
0
0
0
0
0
0
249
249
249
250
250
250
5
5
5
0
0
0
0
0
0
3
3
3
3
3
3
3
3
3
3
3
3
254
254
254
255
255
255
2
2
2
2
2
2
2
2
2
2
2
2
3
3
3
3
3
3
3
3
3
3
3
3
254
254
254
254
254
254
3
3
3
3
3
3
4
4
4
4
4
4
4
4
4
3
3
3
3
3
3
3
3
3
3
3
3
249
249
249
250
250
250
9
9
9
4
4
4
4
4
4
245
245
245
248
248
248
248
248
248
249
249
249
255
255
255
255
255
255
253
253
253
254
254
254
254
254
254
254
254
254
254
254
254
254
254
254
254
254
254
252
252
252
255
255
255
255
255
255
253
253
253
253
253
253
253
253
253
253
253
253
253
253
253
253
253
253
252
252
252
249
249
249
248
248
248
255
255
255
255
255
255
247
247
247
246
246
246
244
244
244
245
245
245
248
248
248
248
248
248
249
249
249
255
255
255
255
255
255
253
253
253
254
254
254
254
254
254
254
254
254
254
254
254
254
254
254
254
254
254
252
252
252
255
255
255
255
255
255
250
250
250
250
250
250
250
250
250
249
249
249
250
250
250
250
250
250
247
247
247
239
239
239
237
237
237
255
255
255
255
255
255
233
233
233
231
231
231
229
229
229
5
5
5
5
5
5
5
5
5
5
5
5
251
251
251
255
255
255
5
5
5
5
5
5
5
5
5
5
5
5
226
226
226
5
5
5
5
5
5
5
5
5
255
255
255
254
254
254
5
5
5
5
5
5
5
5
5
5
5
5
5
5
5
238
238
238
5
5
5
5
5
5
5
5
5
249
249
249
250
250
250
10
10
10
5
5
5
5
5
5
5
5
5
5
5
5
5
5
5
5
5
5
249
249
249
254
254
254
5
5
5
5
5
5
5
5
5
5
5
5
252
252
252
5
5
5
5
5
5
5
5
5
255
255
255
254
254
254
5
5
5
5
5
5
5
5
5
5
5
5
5
5
5
250
250
250
5
5
5
5
5
5
5
5
5
249
249
249
249
249
249
9
9
9
5
5
5
5
5
5
5
5
5
5
5
5
5
5
5
5
5
5
245
245
245
254
254
254
5
5
5
5
5
5
5
5
5
5
5
5
252
252
252
5
5
5
5
5
5
5
5
5
255
255
255
254
254
254
5
5
5
5
5
5
5
5
5
5
5
5
5
5
5
250
250
250
5
5
5
5
5
5
5
5
5
249
249
249
249
249
249
7
7
7
5
5
5
5
5
5
5
5
5
5
5
5
5
5
5
5
5
5
245
245
245
254
254
254
5
5
5
5
5
5
5
5
5
5
5
5
252
252
252
5
5
5
5
5
5
5
5
5
255
255
255
254
254
254
5
5
5
5
5
5
5
5
5
5
5
5
5
5
5
250
250
250
4
4
4
4
4
4
4
4
4
249
249
249
249
249
249
4
4
4
4
4
4
4
4
4
5
5
5
5
5
5
5
5
5
5
5
5
245
245
245
254
254
254
5
5
5
5
5
5
5
5
5
5
5
5
252
252
252
5
5
5
5
5
5
5
5
5
255
255
255
253
253
253
5
5
5
5
5
5
5
5
5
4
4
4
4
4
4
250
250
250
4
4
4
4
4
4
4
4
4
249
249
249
249
249
249
4
4
4
4
4
4
4
4
4
5
5
5
5
5
5
5
5
5
5
5
5
245
245
245
254
254
254
5
5
5
5
5
5
5
5
5
5
5
5
252
252
252
5
5
5
5
5
5
5
5
5
255
255
255
253
253
253
4
4
4
4
4
4
4
4
4
4
4
4
3
3
3
250
250
250
3
3
3
3
3
3
3
3
3
249
249
249
249
249
249
3
3
3
3
3
3
3
3
3
5
5
5
5
5
5
5
5
5
5
5
5
245
245
245
254
254
254
5
5
5
5
5
5
5
5
5
5
5
5
252
252
252
5
5
5
4
4
4
4
4
4
255
255
255
253
253
253
3
3
3
3
3
3
3
3
3
3
3
3
3
3
3
250
250
250
2
2
2
2
2
2
2
2
2
249
249
249
249
249
249
2
2
2
2
2
2
2
2
2
5
5
5
5
5
5
5
5
5
5
5
5
244
244
244
254
254
254
2
2
2
1
1
1
1
1
1
1
1
1
252
252
252
1
1
1
1
1
1
1
1
1
254
254
254
252
252
252
1
1
1
1
1
1
1
1
1
1
1
1
1
1
1
250
250
250
0
0
0
1
1
1
1
1
1
244
244
244
249
249
249
1
1
1
1
1
1
2
2
2
5
5
5
5
5
5
5
5
5
5
5
5
242
242
242
253
253
253
2
2
2
1
1
1
2
2
2
3
3
3
252
252
252
6
6
6
6
6
6
7
7
7
254
254
254
250
250
250
9
9
9
10
10
10
10
10
10
8
8
8
6
6
6
250
250
250
10
10
10
13
13
13
16
16
16
236
236
236
249
249
249
18
18
18
16
16
16
14
14
14
233
233
233
234
234
234
238
238
238
241
241
241
253
253
253
254
254
254
245
245
245
245
245
245
247
247
247
249
249
249
255
255
255
249
249
249
249
249
249
249
249
249
255
255
255
254
254
254
234
234
234
238
238
238
248
248
248
250
250
250
250
250
250
252
252
252
250
250
250
250
250
250
250
250
250
254
254
254
255
255
255
248
248
248
245
245
245
244
244
244
245
245
245
247
247
247
247
247
247
248
248
248
249
249
249
250
250
250
248
248
248
248
248
248
249
249
249
249
249
249
255
255
255
250
250
250
250
250
250
250
250
250
255
255
255
254
254
254
247
247
247
249
249
249
250
250
250
250
250
250
250
250
250
252
252
252
250
250
250
250
250
250
250
250
250
253
253
253
254
254
254
250
250
250
250
250
250
250
250
250
249
249
249
249
249
249
250
250
250
250
250
250
250
250
250
250
250
250
250
250
250
250
250
250
250
250
250
250
250
250
255
255
255
250
250
250
250
250
250
250
250
250
255
255
255
255
255
255
249
249
249
249
249
249
249
249
249
250
250
250
250
250
250
252
252
252
250
250
250
250
250
250
250
250
250
251
251
251
251
251
251
250
250
250
250
250
250
250
250
250
249
249
249
249
249
249
249
249
249
250
250
250
250
250
250
250
250
250
250
250
250
250
250
250
250
250
250
250
250
250
255
255
255
250
250
250
250
250
250
250
250
250
255
255
255
255
255
255
249
249
249
249
249
249
249
249
249
250
250
250
250
250
250
252
252
252
250
250
250
250
250
250
250
250
250
250
250
250
250
250
250
250
250
250
250
250
250
250
250
250
